<svg width="512" height="512" xmlns="http://www.w3.org/2000/svg">
	<path d="m135.81,62.13c-0.25,0.22 -3.37,0.63 -6.95,0.93c-13.9,1.13 -37.6,9.39 -50.16,17.47c-3.89,2.51 -7.33,4.55 -7.67,4.56c-0.99,0.03 -15.22,12.54 -19.79,17.39c-11.94,12.72 -19.85,26.1 -27.72,46.87c-5.01,13.19 -7.02,42.47 -4.09,59.8c5.9,35.18 27.87,69.21 67.68,104.88c103.21,82.78 106.19,85.08 106.71,85.45c0.52,0.37 60.38,45.75 61.69,45.75c49.02,-36.35 52.15,-38.5 55.2,-40.84c3.06,-2.33 5.99,-4.55 6.49,-4.91c94.85,-74.83 100.68,-80.06 106.71,-85.45c39.81,-35.66 61.78,-69.71 67.69,-104.88c2.91,-17.33 0.9,-46.62 -4.09,-59.8c-7.87,-20.76 -15.8,-34.15 -27.73,-46.87c-4.54,-4.86 -18.78,-17.37 -19.79,-17.39c-0.35,-0.01 -3.78,-2.05 -7.67,-4.56c-10.61,-6.83 -28.74,-13.61 -46.45,-17.38c-7.34,-1.57 -44.42,-1.18 -52.53,0.55c-9.8,2.08 -23.74,6.9 -32.84,11.36c-2.91,1.42 -17.78,10.71 -19.62,12.25c-0.59,0.5 -3.02,2.51 -5.38,4.47c-4.35,3.6 -13.05,12 -17.57,16.95l-2.44,2.68l-2.44,-2.68c-4.52,-4.96 -13.22,-13.36 -17.57,-16.95c-2.36,-1.96 -4.79,-3.97 -5.38,-4.47c-11.06,-9.24 -34.63,-19.86 -52.16,-23.52c-7.15,-1.49 -40.83,-2.81 -42.16,-1.65" fill="#e74c3c" />
</svg>
