<svg width="512" height="512" xmlns="http://www.w3.org/2000/svg">
	<ellipse cx="256" cy="256" fill="transparent" rx="80" ry="80" stroke="#ffffff" stroke-width="36"/>
	<path d="m201.85,509.06c-12.76,-2.99 -24.81,-13.35 -29.03,-24.91c-0.93,-2.29 -2.88,-11.86 -4.53,-21.32c-4.01,-22.92 -7.62,-29.5 -19.45,-35.08c-4.73,-2.19 -7.1,-2.69 -13.07,-2.69c-6.28,0.1 -9.26,0.9 -24.19,6.48c-16.88,6.28 -16.98,6.28 -27.79,6.38c-9.98,0 -11.32,-0.2 -17.5,-3.09c-3.71,-1.69 -8.75,-5.08 -11.32,-7.67c-5.46,-5.38 -50.74,-80.42 -53.83,-89.38c-2.68,-7.57 -1.96,-19.63 1.54,-27.1c3.81,-7.77 7.51,-11.76 22.13,-23.32c7.2,-5.78 14.2,-11.86 15.54,-13.35c8.85,-10.86 9.06,-26.71 0.31,-37.47c-1.13,-1.4 -8.23,-7.47 -15.75,-13.55c-14.92,-11.86 -18.22,-15.45 -22.13,-23.52c-3.6,-7.47 -4.32,-19.53 -1.75,-27.1c51.36,-88.39 53.94,-91.77 65.26,-97.06c6.18,-2.89 7.51,-3.09 17.5,-3.09c42.71,11.96 45.7,12.76 51.98,12.86c12.04,0.1 21.72,-5.78 27.38,-16.54c8.44,-40.45 9.78,-44.74 14.21,-51.01c4.32,-6.08 9.78,-10.36 17.6,-13.95l6.69,-3.09c81.32,-0.5 101.49,-0.2 104.68,0.4c12.45,2.59 22.44,10.16 28.1,21.32c9.88,44.24 12.15,50.02 18.63,55.5c6.18,5.18 12.15,7.37 20.48,7.27c6.38,0 9.26,-0.8 24.19,-6.38c16.88,-6.28 16.98,-6.28 27.79,-6.38c9.98,0 13.82,-0.8 19.5,3.09l62.53,94.57c1.34,2.89 1.75,6.68 1.85,13.95c0,8.67 -0.31,10.66 -2.68,15.45c-4.01,8.07 -7.41,11.76 -22.64,23.92c-14.72,11.86 -18.53,16.34 -21,24.21c-1.96,6.28 -1.96,9.07 0,15.35c2.47,7.97 6.48,12.66 21,24.21c15.03,11.96 18.63,15.84 22.64,23.92c2.37,4.78 2.68,6.78 2.68,15.45c-0.1,7.27 -0.21,5.15 -1.85,13.95c-1.64,8.8 -49.52,90.81 -60.74,96.08c-6.18,2.89 -11.3,1.58 -21.29,1.58c-10.81,-0.1 -10.91,-0.1 -27.79,-6.38c-14.92,-5.58 -17.91,-6.38 -24.19,-6.48c-12.04,-0.1 -21.72,5.78 -27.38,16.54c-1.24,2.39 -3.29,10.76 -5.15,21.03c-1.54,9.37 -3.71,19.13 -4.73,21.82c-3.5,9.57 -9.28,21.79 -24.17,24.58c-14.89,2.79 -108.09,0.53 -110.25,0.03l-0.01,-0.03zm96.03,-38.96c0,-0.2 1.34,-7.97 3.09,-17.44c4.43,-24.71 9.47,-35.47 22.54,-47.73c14.51,-13.75 35.61,-21.32 54.65,-19.83c9.98,0.8 12.76,1.49 31.7,8.17c8.65,3.09 15.85,5.38 15.95,5.18c38.7,-64.77 42.72,-72.24 41.69,-73.14c-0.72,-0.6 -6.59,-5.28 -12.87,-10.36c-14.82,-11.76 -20.79,-18.34 -25.94,-28.4c-5.76,-11.06 -7.62,-18.83 -7.62,-31.49c0,-12.66 1.85,-20.43 7.62,-31.49c5.15,-10.06 11.12,-16.64 25.94,-28.4l12.87,-10.36l-41.69,-73.14c-0.1,-0.2 -7.31,2.09 -15.95,5.18c-18.94,6.68 -21.72,7.37 -31.7,8.17c-19.04,1.49 -40.24,-6.18 -54.76,-19.73c-12.87,-12.26 -18.12,-23.22 -22.44,-47.83c-1.75,-9.47 -3.09,-17.24 -3.09,-17.34l-86.46,0c0,0.1 -1.34,7.87 -3.09,17.34c-4.32,24.61 -9.37,35.18 -22.34,47.63c-14.41,13.75 -35.72,21.42 -54.86,19.93c-9.98,-0.8 -12.76,-1.49 -31.7,-8.17c-8.65,-3.09 -15.85,-5.38 -15.95,-5.18c-3.19,3.89 -42.72,72.14 -42.2,72.64c0.41,0.4 6.38,5.18 13.17,10.66c14.41,11.56 19.87,17.24 25.01,26.21c6.18,10.66 8.65,20.53 8.65,33.88c0,13.35 -2.47,23.22 -8.65,33.88c-5.15,8.97 -10.6,14.65 -25.01,26.21c-6.79,5.48 -12.76,10.26 -13.17,10.66c-0.51,0.5 39.01,68.76 42.2,72.64c0.1,0.2 7.31,-2.09 15.95,-5.18c21.31,-7.57 23.36,-7.97 35.82,-8.07c12.87,0 20.79,1.79 32.42,7.37c9.37,4.48 13.99,6.88 23.36,17.64c9.37,10.76 13.79,21.52 17.29,42.15c3.5,20.63 2.37,13.65 2.68,15.25l0.62,2.69c66.8,0 86.26,-0.1 86.26,-0.2l0.01,0z" fill="#ffffff" />
</svg>
