<svg width="16" height="16" xmlns="http://www.w3.org/2000/svg"><ellipse cx="8" cy="8" fill="transparent" rx="2.5" ry="2.5" stroke="#ffffff" stroke-width="1.13" style="fill:none" /><path d="M 6.34,15.93 C 5.4588832,15.789025 5.3688301,14.771577 5.1756353,14.070626 4.88526,12.736602 3.4341324,13.644518 2.5971627,13.722372 1.429913,13.634857 1.20405,12.274774 0.57110457,11.527239 0.01256473,10.862766 -0.28025442,9.5563977 0.70078865,9.1307029 1.6881819,8.6864782 1.6795687,7.1576053 0.59919067,6.8587653 -0.3188158,6.2116572 0.07040277,5.0345832 0.70962743,4.3579058 1.1458066,3.5997233 1.4745511,2.6165206 2.3772581,2.2995448 3.2853269,2.2266882 4.6163607,3.3077881 5.1380438,2.0525892 5.3177552,1.1958744 5.5325932,-0.04373646 6.6754583,0.01614659 7.7138044,0.09890156 8.7722596,-0.11077281 9.7963088,0.11827521 10.569368,0.31098193 10.571622,1.2355275 10.750403,1.8610601 c 0.307427,1.3026813 1.685123,0.6224444 2.503868,0.3533436 0.82764,-0.090277 1.050717,0.8516809 1.472505,1.360975 0.38881,0.6166529 0.834189,1.2049045 1.187448,1.8394061 0.330486,1.0831614 -0.991271,1.5371101 -1.414855,2.2998779 -0.2856,1.1308037 1.380075,1.3511924 1.444845,2.3814793 -0.0079,0.927004 -0.692382,1.66038 -1.102823,2.444419 -0.39067,0.912507 -1.296704,1.612005 -2.278176,1.000092 -0.946701,-0.63303 -1.993578,0.112458 -1.907388,1.191742 0.0079,1.047847 -1.1122687,1.390845 -1.9768201,1.270072 C 7.8997219,15.932974 7.1191405,16.008245 6.34,15.93 Z m 3,-1.22 c 0.072192,-1.038342 0.5424188,-2.201536 1.610519,-2.551894 0.862697,-0.55308 2.289047,0.880644 2.758176,-0.364357 0.567891,-0.682315 1.24254,-1.736649 0.133817,-2.2771293 C 12.89432,8.7323482 13.006994,7.194583 13.884539,6.4028471 14.39852,6.1084948 14.833041,5.6436658 14.236602,5.1479432 13.957925,4.5967831 13.628958,4.0709474 13.33,3.53 12.383852,3.9354666 11.178531,4.1915721 10.300674,3.4919254 9.2869972,3.1081771 9.8933516,1.1858595 8.7077559,1.2901448 8.0634396,1.4130361 6.9692111,1.0406335 6.610177,1.4803803 6.5078416,2.4182135 6.0678498,3.4743442 5.0999314,3.7923931 4.2722569,4.3906884 3.3123355,3.3221592 2.4772941,3.8142154 2.2352934,4.5382998 0.87395464,5.4749545 1.8007346,6.1937991 c 1.053982,0.664386 1.302272,2.235122 0.4884086,3.1815951 -0.5474043,0.4278527 -1.2164805,0.9805138 -0.5529679,1.6797018 0.467778,0.565173 0.7706283,1.822385 1.7323918,1.179994 0.7375009,-0.386335 1.6577438,-0.111792 2.2758,0.38501 0.5290179,0.419069 0.7676252,1.08802 0.7930337,1.743226 0.4594894,0.831464 1.6051495,0.156768 2.3667841,0.36409 C 9.0495442,14.724232 9.1948683,14.718824 9.34,14.71 Z" fill="#ffffff" /></svg>
