<svg xmlns="http://www.w3.org/2000/svg" viewBox="0 0 16 16"><circle cx="8" cy="8" r="2.5" fill="none" stroke="#fff" stroke-width="1.13"/><path fill="#fff" d="M6.34 15.93c-.88-.14-.97-1.16-1.16-1.86-.3-1.33-1.75-.43-2.58-.35-1.17-.09-1.4-1.45-2.03-2.2-.56-.66-.85-1.96.13-2.39.99-.44.98-1.97-.1-2.27-.92-.65-.53-1.83.11-2.5.44-.76.76-1.74 1.67-2.06.9-.07 2.24 1 2.76-.25.18-.85.4-2.1 1.54-2.03C7.7.1 8.78-.11 9.8.12c.77.2.77 1.12.95 1.74.3 1.3 1.69.62 2.5.35.83-.09 1.05.86 1.48 1.37.39.61.83 1.2 1.18 1.83.33 1.09-.99 1.54-1.41 2.3-.29 1.14 1.38 1.36 1.44 2.39 0 .92-.69 1.66-1.1 2.44-.39.91-1.3 1.61-2.28 1-.94-.63-1.99.11-1.9 1.2 0 1.04-1.12 1.38-1.98 1.26-.78-.07-1.56 0-2.34-.07m3-1.22c.07-1.04.54-2.2 1.61-2.55.86-.55 2.29.88 2.76-.37.57-.68 1.24-1.73.13-2.27-.95-.79-.83-2.33.04-3.12.52-.3.95-.76.36-1.25q-.44-.82-.91-1.62c-.95.4-2.15.66-3.03-.04-1.01-.38-.4-2.3-1.6-2.2-.64.12-1.73-.25-2.09.19-.1.94-.54 2-1.51 2.31-.83.6-1.79-.47-2.62.02-.24.73-1.6 1.66-.68 2.38 1.05.67 1.3 2.24.49 3.19-.55.42-1.22.98-.55 1.68.46.56.77 1.82 1.73 1.18.74-.4 1.66-.12 2.27.38.53.42.77 1.09.8 1.74.46.83 1.6.16 2.36.37z"/></svg>